<svg width="2019" height="1012" viewBox="0 0 2019 1012" fill="none" xmlns="http://www.w3.org/2000/svg">
<path d="M871.513 573.255C803.906 692.211 667.613 742.332 567.093 685.203C466.573 628.074 477.441 523.814 545.049 404.858C589.561 326.538 721.02 223.257 800.194 268.254C900.713 325.383 939.121 454.299 871.513 573.255Z" fill="#C8965B"/>
<ellipse cx="762.5" cy="509" rx="76.5" ry="108" fill="black"/>
<ellipse cx="1300.5" cy="508" rx="76.5" ry="108" fill="black"/>
<path d="M1111 673.424C1111 694.092 1080.11 732 1042 732C1003.89 732 973 694.092 973 673.424C973 652.755 1003.89 636 1042 636C1080.11 636 1111 652.755 1111 673.424Z" fill="black"/>
<path d="M801.381 815.712C966.202 829.915 1043.16 769.964 1043.16 732C1043.16 769.964 1117.8 829.915 1282.62 815.712C1282.62 815.712 1282.62 944 1043.16 944C803.706 944 801.381 815.712 801.381 815.712Z" fill="black"/>
<path d="M1046.66 732C1046.66 730.067 1045.1 728.5 1043.16 728.5C1041.23 728.5 1039.66 730.067 1039.66 732H1046.66ZM801.381 815.712L801.682 812.225L801.381 815.712ZM709.362 786.776C707.582 786.024 705.528 786.857 704.776 788.638C704.024 790.418 704.857 792.472 706.638 793.224L709.362 786.776ZM1282.62 815.712L1282.32 812.225L1282.32 812.225L1282.62 815.712ZM1377.36 793.224C1379.14 792.472 1379.98 790.418 1379.22 788.638C1378.47 786.857 1376.42 786.024 1374.64 786.776L1377.36 793.224ZM1039.66 732C1039.66 740.326 1035.41 750.388 1025.98 760.735C1016.58 771.043 1002.23 781.398 982.641 790.228C943.471 807.882 883.654 819.289 801.682 812.225L801.081 819.199C883.929 826.338 945.003 814.87 985.518 796.609C1005.77 787.482 1020.97 776.618 1031.15 765.452C1041.29 754.324 1046.66 742.656 1046.66 732H1039.66ZM801.682 812.225C781.655 810.499 758.616 804.173 740.456 798.21C731.403 795.238 723.618 792.374 718.098 790.255C715.339 789.195 713.148 788.323 711.65 787.716C710.901 787.413 710.325 787.176 709.939 787.016C709.745 786.936 709.6 786.875 709.503 786.835C709.454 786.815 709.418 786.8 709.395 786.79C709.383 786.785 709.375 786.781 709.369 786.779C709.366 786.778 709.365 786.777 709.363 786.776C709.363 786.776 709.363 786.776 709.362 786.776C709.362 786.776 709.362 786.776 708 790C706.638 793.224 706.638 793.224 706.639 793.225C706.639 793.225 706.64 793.225 706.641 793.226C706.643 793.226 706.646 793.228 706.65 793.229C706.657 793.232 706.668 793.237 706.681 793.242C706.709 793.254 706.749 793.271 706.801 793.293C706.905 793.336 707.059 793.4 707.261 793.484C707.663 793.651 708.256 793.894 709.023 794.205C710.556 794.825 712.787 795.714 715.589 796.79C721.192 798.941 729.088 801.845 738.272 804.861C756.584 810.873 780.236 817.403 801.081 819.199L801.682 812.225ZM1039.66 732C1039.66 742.622 1044.85 754.282 1054.79 765.422C1064.75 776.597 1079.66 787.468 1099.63 796.601C1139.57 814.872 1200.07 826.338 1282.92 819.199L1282.32 812.225C1200.34 819.289 1141.12 807.881 1102.54 790.236C1083.25 781.411 1069.19 771.064 1060.01 760.764C1050.8 750.431 1046.66 740.359 1046.66 732H1039.66ZM1282.92 819.199C1303.76 817.403 1327.42 810.873 1345.73 804.861C1354.91 801.845 1362.81 798.941 1368.41 796.79C1371.21 795.714 1373.44 794.825 1374.98 794.205C1375.74 793.894 1376.34 793.651 1376.74 793.484C1376.94 793.4 1377.09 793.336 1377.2 793.293C1377.25 793.271 1377.29 793.254 1377.32 793.242C1377.33 793.237 1377.34 793.232 1377.35 793.229C1377.35 793.228 1377.36 793.226 1377.36 793.226C1377.36 793.225 1377.36 793.225 1377.36 793.225C1377.36 793.224 1377.36 793.224 1376 790C1374.64 786.776 1374.64 786.776 1374.64 786.776C1374.64 786.776 1374.64 786.776 1374.64 786.776C1374.64 786.777 1374.63 786.778 1374.63 786.779C1374.63 786.781 1374.62 786.785 1374.6 786.79C1374.58 786.8 1374.55 786.815 1374.5 786.835C1374.4 786.875 1374.25 786.936 1374.06 787.016C1373.67 787.176 1373.1 787.413 1372.35 787.716C1370.85 788.323 1368.66 789.195 1365.9 790.255C1360.38 792.374 1352.6 795.238 1343.54 798.21C1325.38 804.173 1302.34 810.499 1282.32 812.225L1282.92 819.199ZM801.381 815.712C797.882 815.775 797.882 815.779 797.882 815.783C797.882 815.785 797.882 815.79 797.882 815.794C797.882 815.802 797.883 815.812 797.883 815.824C797.884 815.849 797.885 815.88 797.886 815.92C797.888 815.999 797.893 816.109 797.899 816.249C797.913 816.527 797.936 816.925 797.977 817.433C798.059 818.449 798.21 819.909 798.488 821.748C799.045 825.427 800.114 830.631 802.162 836.851C806.26 849.3 814.278 865.806 829.94 882.268C861.322 915.253 922.826 947.5 1043.16 947.5V940.5C924.043 940.5 864.656 908.603 835.012 877.443C820.16 861.834 812.631 846.268 808.811 834.662C806.899 828.856 805.915 824.037 805.409 820.7C805.157 819.032 805.024 817.735 804.955 816.872C804.92 816.441 804.901 816.118 804.891 815.911C804.886 815.808 804.883 815.734 804.882 815.69C804.881 815.668 804.881 815.653 804.881 815.646C804.881 815.643 804.881 815.641 804.881 815.642C804.881 815.642 804.881 815.643 804.881 815.644C804.881 815.646 804.881 815.648 801.381 815.712ZM1043.16 947.5C1163.49 947.5 1224.44 915.255 1255.25 882.244C1270.62 865.77 1278.34 849.252 1282.22 836.797C1284.16 830.573 1285.13 825.367 1285.62 821.687C1285.87 819.846 1285.99 818.386 1286.05 817.37C1286.09 816.862 1286.1 816.464 1286.11 816.185C1286.11 816.046 1286.12 815.936 1286.12 815.857C1286.12 815.817 1286.12 815.785 1286.12 815.761C1286.12 815.749 1286.12 815.739 1286.12 815.731C1286.12 815.726 1286.12 815.722 1286.12 815.72C1286.12 815.716 1286.12 815.712 1282.62 815.712C1279.12 815.712 1279.12 815.709 1279.12 815.707C1279.12 815.707 1279.12 815.705 1279.12 815.705C1279.12 815.705 1279.12 815.706 1279.12 815.71C1279.12 815.716 1279.12 815.731 1279.12 815.753C1279.12 815.797 1279.12 815.871 1279.11 815.975C1279.11 816.181 1279.09 816.504 1279.07 816.935C1279.01 817.798 1278.9 819.094 1278.68 820.762C1278.24 824.098 1277.34 828.914 1275.54 834.717C1271.93 846.316 1264.68 861.87 1250.13 877.468C1221.07 908.601 1162.29 940.5 1043.16 940.5V947.5Z" fill="black"/>
<path d="M1341 452.74C1341 463.642 1330.82 465 1319.77 465C1308.73 465 1301 463.642 1301 452.74C1301 441.838 1309.95 433 1321 433C1332.05 433 1341 441.838 1341 452.74Z" fill="white"/>
<path d="M802.121 453.848C801.863 464.847 791.692 465.979 780.693 465.722C769.694 465.465 762.032 463.915 762.289 452.916C762.547 441.917 771.672 433.209 782.671 433.466C793.67 433.724 802.378 442.849 802.121 453.848Z" fill="white"/>
<path d="M1092.81 667.253C1092.69 672.134 1089.06 675.614 1084.17 675.5C1079.29 675.386 1075.01 671.72 1075.13 666.839C1075.24 661.957 1079.29 658.093 1084.17 658.207C1089.06 658.321 1092.92 662.371 1092.81 667.253Z" fill="white"/>
<path d="M448.321 314.517C413.967 231.038 220.417 40.5238 126.835 79.035C33.2535 117.546 75.0777 370.499 109.431 453.978C143.785 537.457 241.158 558.507 334.74 519.995C428.321 481.484 482.674 397.996 448.321 314.517Z" fill="#C8965B"/>
<path d="M449.493 326.878C416.495 246.693 230.584 63.6985 140.695 100.69C50.8072 137.681 90.9808 380.65 123.979 460.835C156.977 541.019 250.506 561.238 340.395 524.247C430.283 487.256 482.491 407.062 449.493 326.878Z" fill="#E8BB87"/>
<path d="M392.433 336.904C372.406 288.238 252.548 180.064 191.318 205.262C130.088 230.46 150.673 379.487 170.7 428.153C190.727 476.819 252.903 486.863 314.133 461.666C375.363 436.468 412.46 385.57 392.433 336.904Z" fill="#FFCFDB"/>
<path d="M1642.83 526.266C1733.32 561.777 1826.5 540.026 1858.18 459.31C1875.52 415.137 1894.2 322.178 1892.73 241.242L1658.04 174.05C1598.27 225.816 1546.09 291.008 1530.51 330.715C1498.83 411.43 1552.35 490.756 1642.83 526.266Z" fill="#E7B881"/>
<path d="M1587.73 339.803C1606.95 290.815 1725.02 180.688 1786.65 204.878C1848.29 229.067 1830.15 378.412 1810.93 427.4C1791.7 476.388 1729.7 487.452 1668.07 463.263C1606.43 439.074 1568.5 388.791 1587.73 339.803Z" fill="#FFCFDB"/>
<path d="M1635.04 195.542C1642.49 274.537 1665.18 346.099 1714.59 358.925C1763.74 371.685 1829.98 323.888 1886.66 262.056C1943.34 200.225 1627.59 116.547 1635.04 195.542Z" fill="#C8965B"/>
</svg>
