<svg width="1673" height="1281" viewBox="0 0 1673 1281" fill="none" xmlns="http://www.w3.org/2000/svg">
<path d="M683.513 769.255C615.906 888.211 479.613 938.332 379.093 881.203C278.573 824.074 289.441 719.814 357.049 600.858C401.561 522.538 533.02 419.257 612.194 464.254C712.713 521.383 751.121 650.299 683.513 769.255Z" fill="#C8965B"/>
<ellipse cx="574.5" cy="705" rx="76.5" ry="108" fill="black"/>
<ellipse cx="1112.5" cy="704" rx="76.5" ry="108" fill="black"/>
<path d="M923 869.424C923 890.092 892.108 928 854 928C815.892 928 785 890.092 785 869.424C785 848.755 815.892 832 854 832C892.108 832 923 848.755 923 869.424Z" fill="black"/>
<path d="M613.381 1011.71C778.202 1025.92 855.162 965.964 855.162 928C855.162 965.964 929.798 1025.92 1094.62 1011.71C1094.62 1011.71 1094.62 1140 855.162 1140C615.706 1140 613.381 1011.71 613.381 1011.71Z" fill="black"/>
<path d="M858.662 928C858.662 926.067 857.095 924.5 855.162 924.5C853.229 924.5 851.662 926.067 851.662 928H858.662ZM613.381 1011.71L613.682 1008.22L613.381 1011.71ZM521.362 982.776C519.582 982.024 517.528 982.857 516.776 984.638C516.024 986.418 516.857 988.472 518.638 989.224L521.362 982.776ZM1094.62 1011.71L1094.32 1008.22L1094.32 1008.22L1094.62 1011.71ZM1189.36 989.224C1191.14 988.472 1191.98 986.418 1191.22 984.638C1190.47 982.857 1188.42 982.024 1186.64 982.776L1189.36 989.224ZM851.662 928C851.662 936.326 847.41 946.388 837.976 956.735C828.577 967.043 814.232 977.398 794.641 986.228C755.471 1003.88 695.654 1015.29 613.682 1008.22L613.081 1015.2C695.929 1022.34 757.003 1010.87 797.518 992.609C817.77 983.482 832.967 972.618 843.148 961.452C853.294 950.324 858.662 938.656 858.662 928H851.662ZM613.682 1008.22C593.655 1006.5 570.616 1000.17 552.456 994.21C543.403 991.238 535.618 988.374 530.098 986.255C527.339 985.195 525.148 984.323 523.65 983.716C522.901 983.413 522.325 983.176 521.939 983.016C521.745 982.936 521.6 982.875 521.503 982.835C521.454 982.815 521.418 982.8 521.395 982.79C521.383 982.785 521.375 982.781 521.369 982.779C521.366 982.778 521.365 982.777 521.363 982.776C521.363 982.776 521.363 982.776 521.362 982.776C521.362 982.776 521.362 982.776 520 986C518.638 989.224 518.638 989.224 518.639 989.225C518.639 989.225 518.64 989.225 518.641 989.226C518.643 989.226 518.646 989.228 518.65 989.229C518.657 989.232 518.668 989.237 518.681 989.242C518.709 989.254 518.749 989.271 518.801 989.293C518.905 989.336 519.059 989.4 519.261 989.484C519.663 989.651 520.256 989.894 521.023 990.205C522.556 990.825 524.787 991.714 527.589 992.79C533.192 994.941 541.088 997.845 550.272 1000.86C568.584 1006.87 592.236 1013.4 613.081 1015.2L613.682 1008.22ZM851.662 928C851.662 938.622 856.855 950.282 866.787 961.422C876.75 972.597 891.659 983.468 911.627 992.601C951.572 1010.87 1012.07 1022.34 1094.92 1015.2L1094.32 1008.22C1012.34 1015.29 953.116 1003.88 914.539 986.236C895.245 977.411 881.194 967.064 872.012 956.764C862.799 946.431 858.662 936.359 858.662 928H851.662ZM1094.92 1015.2C1115.76 1013.4 1139.42 1006.87 1157.73 1000.86C1166.91 997.845 1174.81 994.941 1180.41 992.79C1183.21 991.714 1185.44 990.825 1186.98 990.205C1187.74 989.894 1188.34 989.651 1188.74 989.484C1188.94 989.4 1189.09 989.336 1189.2 989.293C1189.25 989.271 1189.29 989.254 1189.32 989.242C1189.33 989.237 1189.34 989.232 1189.35 989.229C1189.35 989.228 1189.36 989.226 1189.36 989.226C1189.36 989.225 1189.36 989.225 1189.36 989.225C1189.36 989.224 1189.36 989.224 1188 986C1186.64 982.776 1186.64 982.776 1186.64 982.776C1186.64 982.776 1186.64 982.776 1186.64 982.776C1186.64 982.777 1186.63 982.778 1186.63 982.779C1186.63 982.781 1186.62 982.785 1186.6 982.79C1186.58 982.8 1186.55 982.815 1186.5 982.835C1186.4 982.875 1186.25 982.936 1186.06 983.016C1185.67 983.176 1185.1 983.413 1184.35 983.716C1182.85 984.323 1180.66 985.195 1177.9 986.255C1172.38 988.374 1164.6 991.238 1155.54 994.21C1137.38 1000.17 1114.34 1006.5 1094.32 1008.22L1094.92 1015.2ZM613.381 1011.71C609.882 1011.78 609.882 1011.78 609.882 1011.78C609.882 1011.79 609.882 1011.79 609.882 1011.79C609.882 1011.8 609.883 1011.81 609.883 1011.82C609.884 1011.85 609.885 1011.88 609.886 1011.92C609.888 1012 609.893 1012.11 609.899 1012.25C609.913 1012.53 609.936 1012.92 609.977 1013.43C610.059 1014.45 610.21 1015.91 610.488 1017.75C611.045 1021.43 612.114 1026.63 614.162 1032.85C618.26 1045.3 626.278 1061.81 641.94 1078.27C673.322 1111.25 734.826 1143.5 855.162 1143.5V1136.5C736.043 1136.5 676.656 1104.6 647.012 1073.44C632.16 1057.83 624.631 1042.27 620.811 1030.66C618.899 1024.86 617.915 1020.04 617.409 1016.7C617.157 1015.03 617.024 1013.74 616.955 1012.87C616.92 1012.44 616.901 1012.12 616.891 1011.91C616.886 1011.81 616.883 1011.73 616.882 1011.69C616.881 1011.67 616.881 1011.65 616.881 1011.65C616.881 1011.64 616.881 1011.64 616.881 1011.64C616.881 1011.64 616.881 1011.64 616.881 1011.64C616.881 1011.65 616.881 1011.65 613.381 1011.71ZM855.162 1143.5C975.494 1143.5 1036.44 1111.25 1067.25 1078.24C1082.62 1061.77 1090.34 1045.25 1094.22 1032.8C1096.16 1026.57 1097.13 1021.37 1097.62 1017.69C1097.87 1015.85 1097.99 1014.39 1098.05 1013.37C1098.09 1012.86 1098.1 1012.46 1098.11 1012.19C1098.11 1012.05 1098.12 1011.94 1098.12 1011.86C1098.12 1011.82 1098.12 1011.79 1098.12 1011.76C1098.12 1011.75 1098.12 1011.74 1098.12 1011.73C1098.12 1011.73 1098.12 1011.72 1098.12 1011.72C1098.12 1011.72 1098.12 1011.71 1094.62 1011.71C1091.12 1011.71 1091.12 1011.71 1091.12 1011.71C1091.12 1011.71 1091.12 1011.71 1091.12 1011.7C1091.12 1011.7 1091.12 1011.71 1091.12 1011.71C1091.12 1011.72 1091.12 1011.73 1091.12 1011.75C1091.12 1011.8 1091.12 1011.87 1091.11 1011.97C1091.11 1012.18 1091.09 1012.5 1091.07 1012.94C1091.01 1013.8 1090.9 1015.09 1090.68 1016.76C1090.24 1020.1 1089.34 1024.91 1087.54 1030.72C1083.93 1042.32 1076.68 1057.87 1062.13 1073.47C1033.07 1104.6 974.287 1136.5 855.162 1136.5V1143.5Z" fill="black"/>
<path d="M1153 648.74C1153 659.642 1142.82 661 1131.77 661C1120.73 661 1113 659.642 1113 648.74C1113 637.838 1121.95 629 1133 629C1144.05 629 1153 637.838 1153 648.74Z" fill="white"/>
<path d="M614.121 649.848C613.863 660.847 603.692 661.979 592.693 661.722C581.694 661.465 574.032 659.915 574.29 648.916C574.547 637.917 583.672 629.209 594.671 629.466C605.67 629.724 614.378 638.849 614.121 649.848Z" fill="white"/>
<path d="M904.806 863.253C904.692 868.134 901.056 871.614 896.174 871.5C891.293 871.386 887.014 867.72 887.129 862.839C887.243 857.957 891.293 854.093 896.174 854.207C901.056 854.321 904.92 858.371 904.806 863.253Z" fill="white"/>
<path d="M448.321 314.517C413.967 231.038 220.417 40.5238 126.835 79.035C33.2535 117.546 75.0777 370.499 109.431 453.978C143.785 537.457 241.158 558.507 334.74 519.995C428.321 481.484 482.674 397.996 448.321 314.517Z" fill="#C8965B"/>
<path d="M449.493 326.878C416.495 246.693 230.584 63.6985 140.696 100.69C50.8073 137.681 90.9808 380.65 123.979 460.835C156.977 541.019 250.507 561.238 340.395 524.247C430.283 487.256 482.491 407.062 449.493 326.878Z" fill="#E8BB87"/>
<path d="M392.433 336.904C372.406 288.238 252.548 180.064 191.318 205.262C130.088 230.46 150.673 379.487 170.7 428.153C190.727 476.819 252.903 486.863 314.133 461.666C375.363 436.468 412.46 385.57 392.433 336.904Z" fill="#FFCFDB"/>
<path d="M1250.83 525.266C1341.32 560.777 1434.5 539.026 1466.18 458.31C1483.52 414.137 1502.2 321.178 1500.73 240.242L1266.04 173.05C1206.27 224.816 1154.09 290.008 1138.51 329.715C1106.83 410.43 1160.35 489.756 1250.83 525.266Z" fill="#E7B881"/>
<path d="M1195.73 338.803C1214.95 289.815 1333.02 179.688 1394.65 203.878C1456.29 228.067 1438.15 377.412 1418.93 426.4C1399.7 475.388 1337.7 486.452 1276.07 462.263C1214.43 438.074 1176.5 387.791 1195.73 338.803Z" fill="#FFCFDB"/>
<path d="M1243.04 194.542C1250.49 273.537 1273.18 345.099 1322.59 357.925C1371.74 370.685 1437.98 322.888 1494.66 261.056C1551.34 199.225 1235.59 115.547 1243.04 194.542Z" fill="#C8965B"/>
</svg>
